<?xml version="1.0" standalone="no"?>
<!DOCTYPE svg PUBLIC "-//W3C//DTD SVG 20010904//EN"
 "http://www.w3.org/TR/2001/REC-SVG-20010904/DTD/svg10.dtd">
<svg version="1.0" xmlns="http://www.w3.org/2000/svg"
 width="800.000000pt" height="800.000000pt" viewBox="0 0 800.000000 800.000000"
 preserveAspectRatio="xMidYMid meet">
<metadata>
Created by potrace 1.14, written by Peter Selinger 2001-2017
</metadata>
<g transform="translate(0.000000,800.000000) scale(0.100000,-0.100000)"
fill="#000000" stroke="none">
<path d="M1608 7835 c-2 -1 -23 -5 -48 -9 -109 -14 -249 -51 -326 -86 -23 -11
-48 -20 -53 -20 -6 0 -11 -3 -11 -7 0 -5 -20 -17 -45 -28 -25 -11 -45 -23 -45
-27 0 -5 -6 -8 -13 -8 -15 0 -134 -94 -186 -147 -62 -63 -129 -161 -171 -249
-22 -47 -40 -91 -40 -100 0 -8 -4 -23 -9 -32 -17 -31 -37 -181 -35 -257 3
-114 29 -272 54 -330 8 -18 21 -59 26 -77 1 -5 3 -11 4 -15 1 -5 2 -11 1 -15
0 -5 4 -8 9 -8 6 0 10 -5 10 -11 0 -16 58 -135 106 -216 95 -162 276 -366 424
-479 36 -27 67 -51 70 -54 10 -10 95 -65 133 -85 22 -12 39 -26 39 -31 -1 -5
-31 -14 -69 -21 -124 -21 -138 -23 -188 -33 -27 -5 -66 -12 -85 -15 -19 -3
-42 -8 -50 -10 -8 -2 -33 -7 -55 -10 -23 -3 -52 -7 -65 -10 -55 -11 -146 -27
-165 -30 -20 -3 -182 -31 -221 -39 -12 -2 -37 -7 -55 -10 -19 -3 -45 -8 -59
-11 -14 -2 -65 -11 -115 -20 -147 -25 -228 -64 -288 -138 -80 -97 -97 -189
-72 -377 3 -25 8 -63 11 -85 2 -22 7 -56 9 -75 3 -19 8 -62 11 -95 3 -33 8
-67 11 -75 2 -8 6 -42 9 -75 2 -33 6 -73 8 -90 3 -16 7 -50 10 -75 3 -25 8
-67 12 -95 7 -53 10 -81 19 -160 3 -27 8 -58 11 -67 3 -9 7 -26 9 -38 7 -37
57 -113 99 -153 36 -33 113 -79 141 -83 6 -1 37 -7 70 -14 33 -7 70 -14 82
-15 48 -6 63 -16 63 -43 0 -15 4 -43 10 -62 5 -19 11 -52 14 -72 2 -20 7 -45
10 -55 2 -10 7 -34 10 -53 3 -19 8 -47 11 -62 3 -16 7 -38 9 -50 2 -13 7 -39
11 -58 3 -19 7 -42 9 -50 2 -8 6 -31 9 -50 7 -37 14 -73 23 -130 3 -19 12 -64
20 -99 8 -35 13 -66 10 -68 -3 -3 -1 -13 4 -22 5 -10 11 -35 14 -57 6 -44 12
-79 26 -144 5 -25 12 -58 14 -75 4 -27 18 -101 30 -165 8 -43 28 -154 32 -175
1 -11 5 -30 8 -41 4 -20 13 -68 21 -119 2 -11 9 -45 14 -75 6 -30 13 -66 16
-80 3 -13 7 -42 11 -64 3 -22 7 -43 9 -46 2 -3 6 -30 10 -60 4 -30 9 -58 11
-61 2 -4 6 -24 9 -45 3 -22 8 -46 11 -54 3 -8 7 -31 10 -50 2 -19 6 -46 9 -60
3 -14 10 -51 16 -83 22 -129 69 -228 148 -309 31 -32 62 -58 68 -58 7 0 13 -4
13 -10 0 -5 6 -10 14 -10 8 0 16 -4 18 -8 9 -21 258 -103 417 -137 19 -4 84
-32 144 -62 92 -46 144 -70 167 -78 13 -4 47 -18 65 -25 57 -24 237 -78 284
-85 14 -2 37 -7 51 -10 62 -14 110 -22 110 -17 0 2 6 0 13 -5 6 -5 31 -8 54
-8 24 0 43 -2 43 -5 0 -3 26 -5 58 -5 81 0 136 -8 232 -36 25 -7 53 -14 62
-15 9 0 30 -6 45 -13 15 -6 37 -12 48 -14 11 -2 27 -7 35 -10 13 -5 49 -14 85
-22 21 -5 102 -27 145 -40 155 -46 239 -67 268 -68 6 0 12 -5 12 -10 0 -6 3
-7 7 -4 3 4 12 2 20 -4 7 -6 13 -9 13 -6 0 3 15 1 33 -4 17 -6 43 -12 56 -15
14 -3 29 -8 34 -11 6 -3 20 -7 31 -9 36 -6 51 -9 61 -16 20 -12 221 0 275 16
30 9 62 18 70 20 8 2 35 9 60 16 25 7 50 13 55 14 14 3 97 27 115 34 8 2 22 6
30 8 8 1 42 10 75 19 33 9 67 19 75 21 8 2 42 11 75 20 33 9 65 17 70 18 6 1
15 4 20 8 6 3 28 9 50 13 22 4 45 10 50 14 6 3 19 7 30 8 11 2 45 11 75 20 75
22 77 23 140 28 71 5 157 14 195 21 41 7 135 23 162 28 39 8 177 47 208 59 17
6 35 12 40 13 31 5 258 105 305 134 12 8 357 104 447 125 36 9 131 43 164 60
71 36 172 130 201 185 7 14 16 27 19 30 11 10 49 116 53 150 3 19 6 37 7 40 1
3 3 10 4 15 0 6 7 39 14 75 7 36 14 74 16 85 2 11 4 20 5 20 1 0 3 11 5 25 3
23 38 221 50 280 17 89 48 259 50 280 2 14 4 25 5 25 2 0 10 36 14 70 3 17 5
30 6 30 2 0 4 15 14 74 11 68 58 322 76 411 6 30 13 66 15 80 2 14 11 63 20
110 14 76 19 104 30 175 2 11 4 20 5 20 1 0 4 14 6 30 2 17 9 50 14 75 5 25
12 61 14 80 3 19 8 46 11 60 4 14 8 39 10 55 2 17 4 30 5 30 1 0 3 11 6 25 2
14 8 45 14 70 5 25 11 60 14 79 4 32 18 50 41 52 6 0 17 2 25 4 8 1 35 6 59
10 23 3 54 10 67 15 13 5 24 7 24 5 0 -3 21 6 48 19 56 29 142 102 142 122 0
8 4 14 8 14 15 0 52 97 58 150 1 14 5 48 8 75 4 28 9 70 11 95 2 25 7 61 9 80
3 19 8 64 12 100 3 36 8 67 9 70 2 3 6 34 10 70 3 36 8 76 10 90 4 27 15 113
21 170 2 19 6 49 8 65 5 39 19 187 19 200 -1 105 -57 212 -147 278 -50 37
-148 74 -216 81 -52 6 -113 16 -129 22 -8 2 -30 7 -50 10 -20 3 -83 14 -141
24 -58 11 -118 22 -135 25 -16 2 -41 7 -55 10 -14 3 -38 8 -55 10 -16 2 -41 6
-55 10 -14 3 -40 7 -59 10 -18 2 -41 7 -50 9 -9 3 -36 8 -61 11 -74 10 -103
15 -139 25 -19 5 -38 7 -43 4 -4 -3 -8 -1 -8 3 0 5 34 29 76 54 42 24 86 51
99 59 12 8 35 24 51 35 100 67 250 205 339 310 28 33 52 62 55 65 3 3 10 12
15 21 6 9 26 41 46 70 68 100 110 181 179 344 12 27 24 70 20 70 -2 0 2 10 8
21 6 12 14 34 17 50 3 16 7 40 10 54 2 14 8 46 13 71 13 68 6 265 -12 340 -23
95 -76 233 -96 249 -4 3 -9 12 -12 20 -19 52 -139 183 -238 261 -82 64 -247
151 -312 164 -9 2 -25 8 -36 14 -10 5 -30 12 -43 14 -13 3 -42 9 -64 15 -22 5
-47 10 -55 10 -8 1 -31 4 -50 8 -45 10 -307 11 -385 2 -163 -20 -344 -72 -500
-144 -33 -15 -62 -28 -65 -29 -20 -6 -67 -32 -78 -42 -7 -7 -20 -13 -28 -13
-8 0 -14 -4 -14 -10 0 -5 -5 -10 -11 -10 -11 0 -174 -106 -200 -130 -8 -8 -29
-25 -45 -38 -64 -49 -87 -70 -171 -152 -111 -108 -147 -149 -272 -306 -39 -49
-139 -198 -191 -284 -66 -108 -200 -370 -200 -389 0 -15 -16 -14 -50 4 -37 19
-102 41 -165 55 -51 12 -221 15 -265 6 -14 -3 -41 -9 -60 -12 -19 -4 -41 -11
-47 -17 -7 -5 -13 -7 -13 -4 0 3 -24 -4 -52 -15 -29 -11 -58 -20 -64 -21 -7
-1 -48 70 -93 158 -45 88 -91 175 -102 193 -10 17 -28 47 -39 65 -11 17 -27
46 -36 62 -9 17 -20 32 -23 35 -3 3 -26 34 -51 70 -54 79 -43 65 -141 185
-118 145 -262 285 -419 408 -32 25 -170 117 -175 117 -4 0 -26 14 -51 30 -24
17 -44 27 -44 23 0 -4 -4 -3 -8 4 -17 26 -341 152 -432 168 -19 3 -52 10 -72
16 -20 5 -40 9 -45 8 -4 -1 -10 0 -13 1 -19 9 -373 23 -382 15z"/>
</g>
</svg>
